<svg xmlns="http://www.w3.org/2000/svg" width="34.5" height="42.167" viewBox="0 0 34.5 42.167">
  <g id="result_x2C__clipboard_x2C__check_mark" transform="translate(-6 -2)">
    <path id="XMLID_206_" d="M39.083,43.833H7.458a.958.958,0,0,1-.958-.958V6.458A.958.958,0,0,1,7.458,5.5H39.083a.958.958,0,0,1,.958.958V42.875A.958.958,0,0,1,39.083,43.833Z" transform="translate(-0.021 -0.146)" fill="#8c9eff"/>
    <path id="Trazado_22" data-name="Trazado 22" d="M39.063,44.292H7.438A1.439,1.439,0,0,1,6,42.854V6.438A1.439,1.439,0,0,1,7.438,5h6.749a.479.479,0,1,1,0,.958H7.438a.479.479,0,0,0-.479.479V42.854a.479.479,0,0,0,.479.479H39.063a.479.479,0,0,0,.479-.479V6.438a.479.479,0,0,0-.479-.479H32.4A.479.479,0,1,1,32.4,5h6.667A1.439,1.439,0,0,1,40.5,6.438V42.854A1.439,1.439,0,0,1,39.063,44.292Z" transform="translate(0 -0.125)" fill="#0277bd"/>
    <path id="XMLID_163_" d="M31.368,41.042H9.979a.479.479,0,0,1-.479-.479V7.979A.479.479,0,0,1,9.979,7.5H36.812a.479.479,0,0,1,.479.479V36.026a.48.48,0,0,1-.173.368L31.675,40.93A.475.475,0,0,1,31.368,41.042Z" transform="translate(-0.146 -0.229)" fill="#f5f5f5"/>
    <path id="Trazado_23" data-name="Trazado 23" d="M31.73,40.583H10V8h4.313a.479.479,0,1,1,0,.958H10.958V39.625H31.395l4.48-3.584V8.958H32.521a.479.479,0,0,1,0-.958h4.313V36.5Z" transform="translate(-0.167 -0.25)" fill="#fff"/>
    <path id="Trazado_24" data-name="Trazado 24" d="M31.347,41.5H9.958A.96.96,0,0,1,9,40.542V7.958A.96.96,0,0,1,9.958,7h4.312a.479.479,0,1,1,0,.958H9.958V40.542H31.347L36.792,36V7.958H32.479a.479.479,0,0,1,0-.958h4.313a.96.96,0,0,1,.958.958V36a.957.957,0,0,1-.343.735l-5.445,4.538A.96.96,0,0,1,31.347,41.5Z" transform="translate(-0.125 -0.208)" fill="#0277bd"/>
    <path id="Trazado_25" data-name="Trazado 25" d="M7.479,41.542A.479.479,0,0,1,7,41.062V8.479a.479.479,0,0,1,.958,0V41.062A.479.479,0,0,1,7.479,41.542Z" transform="translate(-0.042 -0.25)" fill="#e8eaf6"/>
    <g id="Grupo_20" data-name="Grupo 20" transform="translate(30.917 35.542)">
      <path id="XMLID_10_" d="M32.5,41.882v-3.9a.479.479,0,0,1,.479-.479H37.72a.192.192,0,0,1,.123.339L32.814,42.03A.192.192,0,0,1,32.5,41.882Z" transform="translate(-32.021 -37.021)" fill="#eee"/>
      <path id="Trazado_26" data-name="Trazado 26" d="M32.673,42.533a.674.674,0,0,1-.287-.064A.664.664,0,0,1,32,41.862v-3.9A.96.96,0,0,1,32.958,37H37.7a.671.671,0,0,1,.428,1.187L33.1,42.377A.668.668,0,0,1,32.673,42.533Zm.286-4.575v3.29l3.947-3.29Z" transform="translate(-32 -37)" fill="#0277bd"/>
    </g>
    <g id="Grupo_21" data-name="Grupo 21" transform="translate(15.598 2)">
      <path id="XMLID_5_" d="M26.4,4.417a2.858,2.858,0,0,0-5.4,0H16.994a.48.48,0,0,0-.479.479V8.729a.48.48,0,0,0,.479.479H30.411a.479.479,0,0,0,.479-.479V4.9a.479.479,0,0,0-.479-.479Z" transform="translate(-16.036 -2.021)" fill="#eee"/>
      <path id="Trazado_27" data-name="Trazado 27" d="M30.39,9.667H16.973a.96.96,0,0,1-.958-.958V4.875a.96.96,0,0,1,.958-.958h3.691a3.335,3.335,0,0,1,6.037,0h3.69a.96.96,0,0,1,.958.958V8.708A.96.96,0,0,1,30.39,9.667ZM16.973,4.875V8.708H30.39V4.875H26.38a.479.479,0,0,1-.451-.319,2.379,2.379,0,0,0-4.494,0,.48.48,0,0,1-.452.319Z" transform="translate(-16.015 -2)" fill="#0277bd"/>
    </g>
    <path id="Trazado_28" data-name="Trazado 28" d="M17.494,7.792a.479.479,0,0,1-.479-.479v-2.4h4.01a.478.478,0,0,0,.451-.319A2.4,2.4,0,0,1,23.723,3a.479.479,0,0,1,0,.958,1.438,1.438,0,0,0-1.345.96,1.44,1.44,0,0,1-1.355.956H17.972V7.313A.478.478,0,0,1,17.494,7.792Z" transform="translate(-0.459 -0.042)" fill="#fff"/>
    <g id="Grupo_22" data-name="Grupo 22" transform="translate(13.667 13.5)">
      <path id="Trazado_29" data-name="Trazado 29" d="M18.313,34.792H14.479A.479.479,0,0,1,14,34.313V30.479A.479.479,0,0,1,14.479,30h3.833a.479.479,0,0,1,.479.479v3.833A.479.479,0,0,1,18.313,34.792Zm-3.354-.958h2.875V30.958H14.958Z" transform="translate(-14 -14.667)" fill="#0277bd"/>
      <path id="Trazado_30" data-name="Trazado 30" d="M18.313,26.792H14.479A.479.479,0,0,1,14,26.312V22.479A.479.479,0,0,1,14.479,22h3.833a.479.479,0,0,1,.479.479v3.833A.479.479,0,0,1,18.313,26.792Zm-3.354-.958h2.875V22.958H14.958Z" transform="translate(-14 -14.333)" fill="#0277bd"/>
      <path id="Trazado_31" data-name="Trazado 31" d="M18.313,18.792H14.479A.479.479,0,0,1,14,18.313V14.479A.479.479,0,0,1,14.479,14h3.833a.479.479,0,0,1,.479.479v3.833A.479.479,0,0,1,18.313,18.792Zm-3.354-.958h2.875V14.958H14.958Z" transform="translate(-14 -14)" fill="#0277bd"/>
      <path id="Trazado_32" data-name="Trazado 32" d="M32.979,33.958h-11.5a.479.479,0,1,1,0-.958h11.5a.479.479,0,1,1,0,.958Z" transform="translate(-14.292 -14.792)" fill="#0277bd"/>
      <path id="Trazado_33" data-name="Trazado 33" d="M32.979,31.958h-11.5a.479.479,0,0,1,0-.958h11.5a.479.479,0,1,1,0,.958Z" transform="translate(-14.292 -14.708)" fill="#0277bd"/>
      <path id="Trazado_34" data-name="Trazado 34" d="M32.979,25.958h-11.5a.479.479,0,0,1,0-.958h11.5a.479.479,0,1,1,0,.958Z" transform="translate(-14.292 -14.458)" fill="#0277bd"/>
      <path id="Trazado_35" data-name="Trazado 35" d="M32.979,23.958h-11.5a.479.479,0,0,1,0-.958h11.5a.479.479,0,1,1,0,.958Z" transform="translate(-14.292 -14.375)" fill="#0277bd"/>
      <path id="Trazado_36" data-name="Trazado 36" d="M32.979,17.958h-11.5a.479.479,0,0,1,0-.958h11.5a.479.479,0,1,1,0,.958Z" transform="translate(-14.292 -14.125)" fill="#0277bd"/>
      <path id="Trazado_37" data-name="Trazado 37" d="M32.979,15.958h-11.5a.479.479,0,0,1,0-.958h11.5a.479.479,0,1,1,0,.958Z" transform="translate(-14.292 -14.042)" fill="#0277bd"/>
    </g>
  </g>
</svg>
