<svg id="note_book_office_paper_document_icon_175958" xmlns="http://www.w3.org/2000/svg" width="77.443" height="77.443" viewBox="0 0 77.443 77.443">
  <path id="Trazado_12" data-name="Trazado 12" d="M456.97,104.382a1.134,1.134,0,0,1-1.134-1.134V90.769h-6.2a1.134,1.134,0,0,1,0-2.269h7.336a1.134,1.134,0,0,1,1.134,1.134v13.613a1.134,1.134,0,0,1-1.134,1.134Z" transform="translate(-380.662 -75.114)" fill="#3d9ae2"/>
  <path id="Trazado_13" data-name="Trazado 13" d="M10.525,7.5H60.44V82.674H10.525A3.025,3.025,0,0,1,7.5,79.649V10.525A3.025,3.025,0,0,1,10.525,7.5Z" transform="translate(-6.366 -6.366)" fill="#bddbff"/>
  <path id="Trazado_14" data-name="Trazado 14" d="M54.074,77.443H4.16A4.166,4.166,0,0,1,0,73.283V4.16A4.166,4.166,0,0,1,4.16,0H54.074a1.134,1.134,0,0,1,1.134,1.134V76.309A1.134,1.134,0,0,1,54.074,77.443ZM4.16,2.269A1.894,1.894,0,0,0,2.269,4.16V73.283A1.894,1.894,0,0,0,4.16,75.174H52.94V2.269Z" fill="#3d9ae2"/>
  <path id="Trazado_15" data-name="Trazado 15" d="M10.525,7.5H19.6V82.674H10.525A3.025,3.025,0,0,1,7.5,79.649V10.525A3.025,3.025,0,0,1,10.525,7.5Z" transform="translate(-6.366 -6.366)" fill="#fff"/>
  <path id="Trazado_16" data-name="Trazado 16" d="M13.235,77.443H4.16A4.166,4.166,0,0,1,0,73.283V4.16A4.166,4.166,0,0,1,4.16,0h9.075a1.134,1.134,0,0,1,1.134,1.134V76.309A1.134,1.134,0,0,1,13.235,77.443ZM4.16,2.269A1.894,1.894,0,0,0,2.269,4.16V73.283A1.894,1.894,0,0,0,4.16,75.174H12.1V2.269Z" fill="#3d9ae2"/>
  <rect id="Rectángulo_34" data-name="Rectángulo 34" width="28.637" height="14.419" rx="7.21" transform="translate(19.335 7.185)" fill="#fff"/>
  <path id="Trazado_17" data-name="Trazado 17" d="M147.078,56.688H124.49a4.164,4.164,0,0,1-4.16-4.16V44.16A4.166,4.166,0,0,1,124.49,40h22.589a4.166,4.166,0,0,1,4.16,4.16v8.369A4.164,4.164,0,0,1,147.078,56.688ZM124.49,42.269A1.894,1.894,0,0,0,122.6,44.16v8.369a1.892,1.892,0,0,0,1.891,1.891h22.589a1.892,1.892,0,0,0,1.891-1.891V44.16a1.894,1.894,0,0,0-1.891-1.891Z" transform="translate(-102.129 -33.95)" fill="#3d9ae2"/>
  <rect id="Rectángulo_35" data-name="Rectángulo 35" width="7.563" height="54.452" transform="translate(61.41 10.21)" fill="#bddbff"/>
  <path id="Trazado_18" data-name="Trazado 18" d="M407.2,116.721h-7.563a1.134,1.134,0,0,1-1.134-1.134V61.134A1.134,1.134,0,0,1,399.634,60H407.2a1.134,1.134,0,0,1,1.134,1.134v54.452A1.134,1.134,0,0,1,407.2,116.721Zm-6.428-2.269h5.294V62.269h-5.294Z" transform="translate(-338.225 -50.925)" fill="#3d9ae2"/>
  <path id="Trazado_19" data-name="Trazado 19" d="M413.563,427.5H406v6.353l3.781,5.294,3.781-5.294Z" transform="translate(-344.59 -362.838)" fill="#fff"/>
  <path id="Trazado_20" data-name="Trazado 20" d="M403.416,433.916a1.133,1.133,0,0,1-.923-.475l-3.781-5.294a1.134,1.134,0,0,1-.212-.659v-6.353A1.134,1.134,0,0,1,399.634,420H407.2a1.134,1.134,0,0,1,1.134,1.134v6.353a1.135,1.135,0,0,1-.212.659l-3.781,5.294A1.133,1.133,0,0,1,403.416,433.916Zm-2.647-6.791,2.647,3.706,2.647-3.706v-4.855h-5.294Z" transform="translate(-338.225 -356.473)" fill="#3d9ae2"/>
  <rect id="Rectángulo_36" data-name="Rectángulo 36" width="4.538" height="9.075" transform="translate(62.922 1.134)" fill="#fff"/>
  <path id="Trazado_21" data-name="Trazado 21" d="M414.172,11.344h-4.538A1.134,1.134,0,0,1,408.5,10.21V1.134A1.134,1.134,0,0,1,409.634,0h4.538a1.134,1.134,0,0,1,1.134,1.134V10.21A1.134,1.134,0,0,1,414.172,11.344Zm-3.4-2.269h2.269V2.269h-2.269Z" transform="translate(-346.712)" fill="#3d9ae2"/>
</svg>
