<svg id="Grupo_3" data-name="Grupo 3" xmlns="http://www.w3.org/2000/svg" width="27.374" height="21.785" viewBox="0 0 27.374 21.785">
  <path id="Trazado_8" data-name="Trazado 8" d="M75.478,120.939l-9.763,8.049a.231.231,0,0,1-.009.051.232.232,0,0,0-.009.051v8.15a1.1,1.1,0,0,0,1.087,1.087H73.3v-6.52h4.347v6.52h6.52a1.1,1.1,0,0,0,1.087-1.087v-8.15a.239.239,0,0,0-.017-.1Z" transform="translate(-61.791 -116.541)" fill="#fff"/>
  <path id="Trazado_9" data-name="Trazado 9" d="M27.185,57.606l-3.718-3.09V47.588a.523.523,0,0,0-.543-.543h-3.26a.523.523,0,0,0-.543.543V50.9l-4.143-3.464a2.106,2.106,0,0,0-2.581,0L.188,57.606A.493.493,0,0,0,0,57.971a.55.55,0,0,0,.119.4l1.053,1.257a.579.579,0,0,0,.357.187.631.631,0,0,0,.408-.119l11.75-9.8,11.75,9.8a.523.523,0,0,0,.357.118h.051a.58.58,0,0,0,.357-.187l1.053-1.256a.55.55,0,0,0,.118-.4A.5.5,0,0,0,27.185,57.606Z" transform="translate(0.001 -46.994)" fill="#fff"/>
</svg>
