<svg xmlns="http://www.w3.org/2000/svg" width="38.907" height="39.559" viewBox="0 0 38.907 39.559">
  <g id="layer1" transform="translate(-1.14 -275.393)">
    <g id="g1925" transform="translate(1.14 275.393)">
      <path id="path1822" d="M41.359,314.949a2.7,2.7,0,0,0-2.692,2.692v30.272a2.7,2.7,0,0,0,2.692,2.687h24.9a2.458,2.458,0,0,0,2.448-2.448v-4.619a.635.635,0,0,0-.159-.427L43.6,315.165a.635.635,0,0,0-.478-.216Z" transform="translate(-38.667 -311.041)" fill="#ffb240" fill-rule="evenodd"/>
      <path id="path1572" d="M43.348,312.958a2.7,2.7,0,0,0-2.687,2.687v30.516a2.458,2.458,0,0,0,2.448,2.448h20.47l.042,0a.62.62,0,0,0,.089-.014h.009a.629.629,0,0,0,.061-.019l.038-.014a.632.632,0,0,0,.094-.047.641.641,0,0,0,.08-.056l0,0,.028-.024.019-.019,6.462-6.345.019-.024a.628.628,0,0,0,.066-.08.643.643,0,0,0,.038-.065c.009-.017.016-.034.024-.052a.554.554,0,0,0,.038-.145c0-.009,0-.019,0-.028s0-.041,0-.061V315.643a2.7,2.7,0,0,0-2.692-2.687Z" transform="translate(-36.839 -312.868)" fill="#fed883" fill-rule="evenodd"/>
      <path id="path1838" d="M68.006-37.877l-24.658,0a2.7,2.7,0,0,0-2.688,2.686v8.211c3.827,2.957,9.248,2.541,14.166,5.615,6.168,3.855,3.219,14.053,4.6,19.138h4.15l.042,0a.635.635,0,0,0,.088-.015h.01a.634.634,0,0,0,.061-.019l.037-.015a.635.635,0,0,0,.094-.047.637.637,0,0,0,.079-.056l.005,0,.029-.024.019-.02,6.462-6.344.019-.025a.635.635,0,0,0,.066-.079.636.636,0,0,0,.037-.066q.013-.025.024-.051a.637.637,0,0,0,.024-.071.634.634,0,0,0,.015-.074q0-.014,0-.029,0-.03.005-.061V-35.191a2.7,2.7,0,0,0-2.691-2.686Z" transform="translate(-36.839 37.967)" fill="#f0c561"/>
      <path id="path1587" d="M43.213,314.208a3.127,3.127,0,0,0-2.2.3.636.636,0,1,0,.567,1.14,1.954,1.954,0,0,1,1.3-.206c.292.079.328.139.328.272a.635.635,0,1,0,1.271,0,1.636,1.636,0,0,0-1.266-1.5Z" transform="translate(-36.839 -311.8)" fill="#143441"/>
      <path id="path1591" d="M43.213,316.2a3.127,3.127,0,0,0-2.2.3.634.634,0,1,0,.567,1.135,1.954,1.954,0,0,1,1.3-.206c.292.079.328.144.328.277a.635.635,0,0,0,1.271,0,1.636,1.636,0,0,0-1.266-1.5Z" transform="translate(-36.839 -309.972)" fill="#143441"/>
      <path id="path1595" d="M43.213,318.194a3.128,3.128,0,0,0-2.2.3.637.637,0,1,0,.567,1.14,1.953,1.953,0,0,1,1.3-.206c.292.079.328.139.328.272a.635.635,0,1,0,1.271,0,1.636,1.636,0,0,0-1.266-1.5Z" transform="translate(-36.839 -308.146)" fill="#143441"/>
      <path id="path1600" d="M43.213,320.187a3.127,3.127,0,0,0-2.2.3.634.634,0,1,0,.567,1.135,1.954,1.954,0,0,1,1.3-.206c.292.079.328.144.328.277a.635.635,0,0,0,1.271,0,1.636,1.636,0,0,0-1.266-1.5Z" transform="translate(-36.839 -306.319)" fill="#143441"/>
      <path id="path1604" d="M43.213,322.178a3.127,3.127,0,0,0-2.2.3.637.637,0,1,0,.567,1.14,1.954,1.954,0,0,1,1.3-.206c.292.079.328.139.328.272a.635.635,0,1,0,1.271,0A1.637,1.637,0,0,0,43.213,322.178Z" transform="translate(-36.839 -304.493)" fill="#143441"/>
      <path id="path1608" d="M43.213,324.173a3.128,3.128,0,0,0-2.2.3.634.634,0,1,0,.567,1.135,1.954,1.954,0,0,1,1.3-.206c.292.079.328.144.328.277a.635.635,0,0,0,1.271,0,1.636,1.636,0,0,0-1.266-1.5Z" transform="translate(-36.839 -302.665)" fill="#143441"/>
      <path id="path1612" d="M43.213,326.164a3.128,3.128,0,0,0-2.2.3.637.637,0,1,0,.567,1.14,1.953,1.953,0,0,1,1.3-.206c.292.079.328.139.328.272a.635.635,0,1,0,1.271,0,1.636,1.636,0,0,0-1.266-1.5Z" transform="translate(-36.839 -300.839)" fill="#143441"/>
      <path id="path1616" d="M43.25,328.237a2.938,2.938,0,0,0-2.237.192.634.634,0,1,0,.567,1.135,1.674,1.674,0,0,1,1.266-.122c.317.106.361.3.361.192a.635.635,0,0,0,1.271,0,1.548,1.548,0,0,0-1.229-1.4Z" transform="translate(-36.839 -298.985)" fill="#143441"/>
      <path id="path1716" d="M56.907,316.743a.635.635,0,0,0-.572.319l-3.386,5.862a.635.635,0,0,0,.234.868l3.363,1.946a.635.635,0,0,0,.868-.23l3.4-5.876a.635.635,0,0,0-.234-.868L57.2,316.827a.635.635,0,0,0-.3-.085Z" transform="translate(-25.65 -309.396)" fill="#2276bc"/>
      <path id="path1685" d="M60.264,313.163a1.954,1.954,0,0,0-2.65.727l-1.036,1.8a.635.635,0,0,0,.234.868l2.242,1.294a.635.635,0,0,0,.868-.235l1.06-1.838a1.926,1.926,0,0,0-.718-2.612Z" transform="translate(-22.324 -312.91)" fill="#f5f6e8"/>
      <path id="path1772" d="M51.68,323.309a.635.635,0,0,0-.652.558l-.375,3.123a1.4,1.4,0,0,0,2.228,1.285L55.4,326.4a.635.635,0,0,0-.061-1.06l-3.362-1.942a.636.636,0,0,0-.3-.085Z" transform="translate(-27.687 -303.376)" fill="#f5f6e8"/>
      <path id="path1870" d="M51.5,323.309a.635.635,0,0,0-.6.558l-.11.919,3.15,1.819a.635.635,0,0,1,.316.547l1.015-.758a.635.635,0,0,0-.061-1.06l-3.363-1.942a.636.636,0,0,0-.3-.084H51.5Z" transform="translate(-27.556 -303.376)" fill="#dddec9"/>
      <path id="path1758" d="M54.046,320.971a.635.635,0,0,0-.492.206l-.094.1a12.835,12.835,0,0,0-2.335,3.522,2.3,2.3,0,0,0,.633,2.893q.725.462,1.487.858A2.037,2.037,0,0,0,55.809,328a13.413,13.413,0,0,0,2.138-4.122l.042-.136a.636.636,0,0,0-.131-.61l-.136-.155a6.153,6.153,0,0,0-3.372-1.946l-.2-.042a.646.646,0,0,0-.1-.014Z" transform="translate(-27.465 -305.52)" fill="#2276bc"/>
      <path id="path1858" d="M55.462,316.743a.635.635,0,0,0-.519.319l-.561.972a.635.635,0,0,1,.158.065l3.373,1.937a.635.635,0,0,1,.235.867l-2.832,4.9a.635.635,0,0,0,.706-.3l3.4-5.876a.635.635,0,0,0-.235-.867l-3.373-1.937a.636.636,0,0,0-.3-.084h-.053Z" transform="translate(-24.259 -309.396)" fill="#1e69a9"/>
      <path id="path1863" d="M53.2,320.969h0a.635.635,0,0,0-.493.206l-.093.1c-.288.315-.556.64-.808.969a.641.641,0,0,1,.123-.007h0a.637.637,0,0,1,.1.014l.2.042a6.15,6.15,0,0,1,3.371,1.946l.136.155a.635.635,0,0,1,.132.61l-.042.135a13.415,13.415,0,0,1-1.7,3.488,2,2,0,0,0,.828-.637,13.414,13.414,0,0,0,2.139-4.122l.042-.135a.635.635,0,0,0-.132-.611l-.136-.155a6.15,6.15,0,0,0-3.371-1.946l-.2-.042a.637.637,0,0,0-.1-.015Z" transform="translate(-26.62 -305.521)" fill="#1e69a9"/>
      <path id="path1730" d="M54.144,319.8a.635.635,0,0,0-.492.206l-.094.1a4.488,4.488,0,0,0-.872,1.135c-.148.325-.173.531-.446,1.186a.635.635,0,0,0,.267.8l3.363,1.942a.635.635,0,0,0,.821-.164c.431-.564.6-.69.811-.98a4.5,4.5,0,0,0,.544-1.322l.042-.136a.635.635,0,0,0-.131-.61l-.136-.155a6.153,6.153,0,0,0-3.372-1.946l-.2-.042a.626.626,0,0,0-.1-.015Z" transform="translate(-26.269 -306.593)" fill="#1d5c87"/>
      <path id="path1701" d="M58.2,314.112a.635.635,0,0,0-.492.206l-.1.1a13.414,13.414,0,0,0-2.912,5.041l-.042.136a.635.635,0,0,0,.291.741l2.242,1.294,1.121.647a.635.635,0,0,0,.783-.122,14.872,14.872,0,0,0,.961-1.149,13.418,13.418,0,0,0,2.049-4h0l.042-.136a.635.635,0,0,0-.127-.614l-.136-.15a6.172,6.172,0,0,0-3.377-1.951l-.2-.037a.632.632,0,0,0-.1-.014Z" transform="translate(-24.031 -311.808)" fill="#1d5c87"/>
      <path id="path1620" d="M47.941,325.579a.633.633,0,1,0,0,1.266h3.817a.633.633,0,1,0,0-1.266Z" transform="translate(-30.749 -301.295)" fill="#5b6571"/>
      <path id="path1624" d="M45.945,325.579a.633.633,0,0,0,0,1.266H47.22a.633.633,0,0,0,0-1.266Z" transform="translate(-32.575 -301.295)" fill="#5b6571"/>
      <path id="path1628" d="M43.951,325.579a.633.633,0,0,0,0,1.266h1.275a.633.633,0,0,0,0-1.266Z" transform="translate(-34.403 -301.295)" fill="#5b6571"/>
      <path id="path1632" d="M43.951,326.908a.635.635,0,0,0,0,1.271h5.027a.635.635,0,0,0,0-1.271Zm7.644,0a.635.635,0,1,0,0,1.271h6.364a.635.635,0,1,0,0-1.271Z" transform="translate(-34.403 -300.077)" fill="#5b6571"/>
      <path id="path1636" d="M43.951,328.236a.635.635,0,0,0,0,1.271H54.142a.635.635,0,0,0,0-1.271Z" transform="translate(-34.403 -298.859)" fill="#5b6571"/>
      <path id="path1640" d="M50.6,328.236a.635.635,0,1,0,0,1.271h1.271a.635.635,0,1,0,0-1.271Z" transform="translate(-28.313 -298.859)" fill="#5b6571"/>
      <path id="path1812" d="M47.773,314.286a4.455,4.455,0,1,0,4.455,4.455A4.465,4.465,0,0,0,47.773,314.286Z" transform="translate(-34.403 -311.648)" fill="#7cad39"/>
      <path id="path1808" d="M52.867,314.287a.636.636,0,0,0-.342.141L46.7,319.085l-.891-1.332a.634.634,0,1,0-1.055.7l1.271,1.913a.635.635,0,0,0,.929.141l6.364-5.093a.637.637,0,0,0-.45-1.13Z" transform="translate(-33.185 -311.649)" fill="#2276bc"/>
      <path id="path1644" d="M47.941,321.594a.633.633,0,1,0,0,1.266h3.817a.633.633,0,1,0,0-1.266Z" transform="translate(-30.749 -304.948)" fill="#5b6571"/>
      <path id="path1648" d="M45.945,321.594a.633.633,0,1,0,0,1.266H47.22a.633.633,0,1,0,0-1.266Z" transform="translate(-32.575 -304.948)" fill="#5b6571"/>
      <path id="path1652" d="M43.951,321.594a.633.633,0,1,0,0,1.266h1.275a.633.633,0,1,0,0-1.266Z" transform="translate(-34.403 -304.948)" fill="#5b6571"/>
      <path id="path1656" d="M43.951,322.922a.633.633,0,1,0,0,1.266h5.027a.633.633,0,1,0,0-1.266Zm7.644,0a.633.633,0,1,0,0,1.266h3.18a.633.633,0,1,0,0-1.266Z" transform="translate(-34.403 -303.731)" fill="#5b6571"/>
      <path id="path1660" d="M43.951,324.251a.633.633,0,0,0,0,1.266H54.142a.633.633,0,0,0,0-1.266Z" transform="translate(-34.403 -302.512)" fill="#5b6571"/>
      <path id="path1664" d="M43.951,320.263a.635.635,0,0,0,0,1.271H58.6a.635.635,0,0,0,0-1.271Z" transform="translate(-34.403 -306.169)" fill="#5b6571"/>
      <path id="path1784" d="M49.931,315.615a.634.634,0,1,0,.634.634A.635.635,0,0,0,49.931,315.615Z" transform="translate(-28.921 -310.43)" fill="#5b6571"/>
      <path id="path1788" d="M51.26,315.615a.634.634,0,1,0,.634.634A.635.635,0,0,0,51.26,315.615Z" transform="translate(-27.703 -310.43)" fill="#5b6571"/>
      <g id="g1189" transform="translate(25.469 5.185)">
        <path id="path1792" d="M11.6,354.568a.634.634,0,1,0,.634.634.635.635,0,0,0-.634-.634Z" transform="translate(-10.962 -354.568)" fill="#5b6571"/>
        <path id="path1796" d="M12.925,354.568a.634.634,0,1,0,.634.634.635.635,0,0,0-.634-.634Z" transform="translate(-9.744 -354.568)" fill="#5b6571"/>
      </g>
      <path id="path1800" d="M49.6,316.943a.635.635,0,0,0,0,1.271h1.276a.635.635,0,0,0,0-1.271Z" transform="translate(-29.226 -309.212)" fill="#5b6571"/>
      <path id="path1804" d="M51.594,316.943a.635.635,0,1,0,0,1.271h4.455a.635.635,0,1,0,0-1.271Z" transform="translate(-27.4 -309.212)" fill="#5b6571"/>
      <path id="path1670" d="M52.923,327.572a.635.635,0,0,0-.638.638v6.364a.635.635,0,0,0,1.083.455l6.481-6.364.019-.024a.627.627,0,0,0,.066-.08.639.639,0,0,0,.038-.066c.009-.017.016-.034.024-.052a.552.552,0,0,0,.038-.145c0-.009,0-.019,0-.028s0-.041,0-.061c0,0,0-.01,0-.014l0-.024a.944.944,0,0,0-.028-.169l0-.01a1.42,1.42,0,0,0-.094-.174l-.009-.01-.014-.014-.028-.033-.019-.019a.66.66,0,0,0-.347-.164.615.615,0,0,0-.089-.01Z" transform="translate(-26.182 -299.471)" fill="#e5b32e" fill-rule="evenodd"/>
      <g id="g1856" transform="matrix(0.5, -0.866, 0.866, 0.5, 31.131, 7.302)">
        <path id="path1844" d="M.638,0a.635.635,0,1,0,0,1.271l2.4.16a.635.635,0,1,0,0-1.271Z" transform="translate(1.752 0.063)" fill="#2673a6"/>
        <path id="path1852" d="M.634,0a.634.634,0,1,0,.634.634A.635.635,0,0,0,.634,0Z" transform="translate(0)" fill="#2673a6"/>
      </g>
    </g>
  </g>
</svg>
